:version 1.10
:name ASF
:units
  mass 1
  length 1
  angle deg
:documentation
  ASF file generated by Kaydara
:root
  axis xyz
  order  tx ty tz rx ry rz
  position 0 0 0
  orientation 0 0 0
:bonedata
  begin
    id 1
    name lowerbackDummy
    direction 0 0 0
    length 0
    axis 0 -0 0 xyz
  end
  begin
    id 2
    name lowerback
    direction 0.0149039 0.998517 -0.0523597
    length 4.68464
    axis 0 -0 0 xyz
    dof rx ry rz
    limits( -inf , inf )
( -inf , inf )
( -inf , inf )

  end
  begin
    id 3
    name upperback
    direction -0.00882659 0.999418 -0.0329624
    length 4.68933
    axis 0 -0 0 xyz
    dof rx ry rz
    limits( -inf , inf )
( -inf , inf )
( -inf , inf )

  end
  begin
    id 4
    name thorax
    direction -0.0165585 0.999826 -0.0085833
    length 4.68976
    axis 0 -0 0 xyz
    dof rx ry rz
    limits( -inf , inf )
( -inf , inf )
( -inf , inf )

  end
  begin
    id 5
    name lowerneck
    direction -0.0130877 0.999911 0.00260353
    length 3.85007
    axis 0 -0 0 xyz
    dof rx ry rz
    limits( -inf , inf )
( -inf , inf )
( -inf , inf )

  end
  begin
    id 6
    name upperneck
    direction -0.0348454 0.928205 -0.370435
    length 3.70427
    axis 0 -0 0 xyz
    dof rx ry rz
    limits( -inf , inf )
( -inf , inf )
( -inf , inf )

  end
  begin
    id 7
    name head
    direction 0 0 0
    length 0
    axis 0 0 0 xyz
    dof rx ry rz
    limits( -inf , inf )
( -inf , inf )
( -inf , inf )

  end
  begin
    id 8
    name lclavicle
    direction 0.987582 0.144023 0.0627671
    length 7.76078
    axis 0 -0 0 xyz
    dof rx ry rz
    limits( -inf , inf )
( -inf , inf )
( -inf , inf )

  end
  begin
    id 9
    name lhumerus
    direction 1 -4.48958e-011 -1.45183e-018
    length 12.0426
    axis 180 -30 -90 xyz
    dof rx ry rz
    limits( -inf , inf )
( -inf , inf )
( -inf , inf )

  end
  begin
    id 10
    name lradius
    direction 1 -4.48999e-011 3.74805e-027
    length 5.43051
    axis 180 -30 -90 xyz
    dof rz ry rx
    limits( -inf , inf )
( -inf , inf )
( -inf , inf )

  end
  begin
    id 11
    name lwrist
    direction 1 -4.48988e-011 -4.48237e-017
    length 2.71524
    axis -90 90 0 xyz
    dof rz rx ry
    limits( -inf , inf )
( -inf , inf )
( -inf , inf )

  end
  begin
    id 12
    name lhand
    direction 1 -4.48882e-011 -4.48237e-017
    length 1.61667
    axis -90 90 0 xyz
    dof ry rx rz
    limits( -inf , inf )
( -inf , inf )
( -inf , inf )

  end
  begin
    id 13
    name lfingers
    direction 0 0 0
    length 0
    axis 0 0 0 xyz
    dof rz ry rx
    limits( -inf , inf )
( -inf , inf )
( -inf , inf )

  end
  begin
    id 14
    name lthumb
    direction 0 0 0
    length 0
    axis 0 0 0 xyz
    dof ry rx rz
    limits( -inf , inf )
( -inf , inf )
( -inf , inf )

  end
  begin
    id 15
    name rclavicle
    direction -0.980998 0.169556 0.0943023
    length 7.31716
    axis 0 -0 0 xyz
    dof rx ry rz
    limits( -inf , inf )
( -inf , inf )
( -inf , inf )

  end
  begin
    id 16
    name rhumerus
    direction -1 -1.83355e-005 2.45537e-005
    length 12.4217
    axis 180 30 90 xyz
    dof rx ry rz
    limits( -inf , inf )
( -inf , inf )
( -inf , inf )

  end
  begin
    id 17
    name rradius
    direction -1 -4.48967e-011 0
    length 5.51244
    axis 180 30 90 xyz
    dof rz ry rx
    limits( -inf , inf )
( -inf , inf )
( -inf , inf )

  end
  begin
    id 18
    name rwrist
    direction -1 -4.48964e-011 -4.48237e-017
    length 2.75622
    axis -90 -90 0 xyz
    dof rz rx ry
    limits( -inf , inf )
( -inf , inf )
( -inf , inf )

  end
  begin
    id 19
    name rhand
    direction -1 -4.48882e-011 -4.48237e-017
    length 1.81335
    axis -90 -90 0 xyz
    dof ry rx rz
    limits( -inf , inf )
( -inf , inf )
( -inf , inf )

  end
  begin
    id 20
    name rfingers
    direction 0 0 0
    length 0
    axis 0 0 0 xyz
    dof rz ry rx
    limits( -inf , inf )
( -inf , inf )
( -inf , inf )

  end
  begin
    id 21
    name rthumb
    direction 0 0 0
    length 0
    axis 0 0 0 xyz
    dof ry rx rz
    limits( -inf , inf )
( -inf , inf )
( -inf , inf )

  end
  begin
    id 22
    name rfemurDummy
    direction -0.640058 -0.688614 0.340788
    length 5.51442
    axis 0 -0 0 xyz
  end
  begin
    id 23
    name rfemur
    direction -0.34202 -0.939693 0
    length 14.6194
    axis 0 -0 -20 xyz
    dof rx ry rz
    limits( -inf , inf )
( -inf , inf )
( -inf , inf )

  end
  begin
    id 24
    name rtibia
    direction -0.34202 -0.939693 0
    length 17.7267
    axis 0 -0 -20 xyz
    dof rz ry rx
    limits( -inf , inf )
( -inf , inf )
( -inf , inf )

  end
  begin
    id 25
    name rfoot
    direction -0.0979793 -0.269196 0.958089
    length 4.88571
    axis -90 -7.62852e-016 -20 xyz
    dof ry rx rz
    limits( -inf , inf )
( -inf , inf )
( -inf , inf )

  end
  begin
    id 26
    name rtoes
    direction 0 0 0
    length 0
    axis 0 0 0 xyz
    dof rz ry rx
    limits( -inf , inf )
( -inf , inf )
( -inf , inf )

  end
  begin
    id 27
    name lfemurDummy
    direction 0.653368 -0.678499 0.335782
    length 5.59662
    axis 0 -0 0 xyz
  end
  begin
    id 28
    name lfemur
    direction 0.34202 -0.939693 0
    length 14.6166
    axis 0 -0 20 xyz
    dof rx ry rz
    limits( -inf , inf )
( -inf , inf )
( -inf , inf )

  end
  begin
    id 29
    name ltibia
    direction 0.34202 -0.939693 0
    length 17.6582
    axis 0 -0 20 xyz
    dof rz ry rx
    limits( -inf , inf )
( -inf , inf )
( -inf , inf )

  end
  begin
    id 30
    name lfoot
    direction 0.0811271 -0.222895 0.971461
    length 5.14087
    axis -90 7.62852e-016 20 xyz
    dof ry rx rz
    limits( -inf , inf )
( -inf , inf )
( -inf , inf )

  end
  begin
    id 31
    name ltoes
    direction 0 0 0
    length 0
    axis 0 0 0 xyz
    dof rz ry rx
    limits( -inf , inf )
( -inf , inf )
( -inf , inf )

  end
:hierarchy
  begin
    root lowerbackDummy rfemurDummy lfemurDummy
    lowerbackDummy lowerback
    lowerback upperback
    upperback thorax
    thorax lowerneck lclavicle rclavicle
    lowerneck upperneck
    upperneck head
    lclavicle lhumerus
    lhumerus lradius
    lradius lwrist
    lwrist lhand lthumb
    lhand lfingers
    rclavicle rhumerus
    rhumerus rradius
    rradius rwrist
    rwrist rhand rthumb
    rhand rfingers
    rfemurDummy rfemur
    rfemur rtibia
    rtibia rfoot
    rfoot rtoes
    lfemurDummy lfemur
    lfemur ltibia
    ltibia lfoot
    lfoot ltoes
  end

:SAMPLES-PER-SECOND 30
:FULLY-SPECIFIED
:DEGREES
97
root  1.990035575 37.30933422 -24.69088937 10.83360004 0.5852630138 1.372529984
lowerback  -3.004159927 0.4044679999 -2.958699942
upperback  -2.442610025 0.6036880016 0.3894360065
thorax  -0.8581179976 0.3449639976 2.071170092
lowerneck  -15.82180023 -0.8588470221 -2.073199987
upperneck  39.07540131 -0.02276369929 -1.270889997
head  16.82119942 -0.4896939993 -0.1977149993
lclavicle  0 5.864150125e-015 -2.067359921e-014
lhumerus  -32.81219864 18.14929962 64.58860016
lradius  -2.3624129e-031 -2.624471247e-031 48.0080986
lwrist  0 -0 -3.69272995
lhand  -3.535000309e-031 2.683079958 20.64189911
lfingers  90 7.125020027 -90
lthumb  91.67568306 3.127128391 61.79655751
rclavicle  0 5.864150125e-015 -2.067359921e-014
rhumerus  -44.12540054 -10.63969994 -73.37519836
rradius  3.073668551e-031 1.73821911e-031 29.48900032
rwrist  7.062250077e-031 -0 -11.26679993
rhand  -3.56075615e-031 -7.39677 10.7347002
rfingers  -90 -7.125020027 -90
rthumb  -80.97905847 -25.12215833 -69.49685811
rfemur  -40.65779877 23.13839912 6.497429848
rtibia  -0 0 19.60269928
rfoot  -0 -26.13689995 -32.18330002
rtoes  -0.4146003255 19.99587814 -88.78770987
lfemur  3.352250099 -9.481340408 -26.68849945
ltibia  -0 0 7.287340164
lfoot  -0 -20.68540001 21.71990013
ltoes  -2.98138171 -19.78553976 -98.74698064
98
root  1.977228931 37.25533373 -24.34266609 10.65060043 0.7035899758 1.62421
lowerback  -2.810709953 0.3557240069 -3.003750086
upperback  -2.488120079 0.5324649811 0.3462119997
thorax  -1.009070039 0.3124389946 2.048749924
lowerneck  -15.54769993 -0.7976509929 -2.132849932
upperneck  39.10430145 0.08815339953 -1.278360009
head  16.76759911 -0.4530510008 -0.1686290056
lclavicle  0 5.864150125e-015 -2.067359921e-014
lhumerus  -33.06420135 18.04199982 64.42870331
lradius  -2.363502866e-031 -2.623489706e-031 47.98429871
lwrist  -1.059337512e-030 -0 -3.866889954
lhand  -3.534568033e-031 2.529139996 20.51499939
lfingers  90 7.125020027 -90
lthumb  91.61921928 3.040699638 61.94652094
rclavicle  0 5.864150125e-015 -2.067359921e-014
rhumerus  -44.18579865 -10.60009956 -73.23729706
rradius  3.09205358e-031 1.705300178e-031 28.87719917
rwrist  7.062250077e-031 -1.765562519e-031 -10.74639988
rhand  -3.557952784e-031 -7.04049015 11.40950012
rfingers  -90 -7.125020027 -90
rthumb  -80.54063723 -25.72893262 -69.00312768
rfemur  -40.48740005 23.05649948 6.192930222
rtibia  -0 0 19.41209984
rfoot  -0 -25.1996994 -31.75810051
rtoes  -0.2999133201 19.99784325 -89.12308188
lfemur  4.334869862 -9.571590424 -27.05050087
ltibia  -0 0 7.003520012
lfoot  -0 -20.62039948 21.71080017
ltoes  -2.222749646 -19.88112929 -96.51126132
99
root  1.948606686 37.18755527 -24.00155556 10.45839977 0.6821870208 1.846259952
lowerback  -2.635179996 0.3505190015 -3.136709929
upperback  -2.475699902 0.5219939947 0.33020401
thorax  -1.095340014 0.3101580143 2.105380058
lowerneck  -15.45230007 -0.7475240231 -2.151370049
upperneck  39.27669907 0.2157299966 -1.381420016
head  16.83729935 -0.4188129902 -0.1889880002
lclavicle  0 5.864150125e-015 -2.067359921e-014
lhumerus  -33.25740051 17.93289948 64.28959656
lradius  -2.368384268e-031 -2.619083809e-031 47.87760162
lwrist  -7.062250077e-031 -3.531125038e-031 -3.981359959
lhand  -3.534600207e-031 2.540920019 20.53650093
lfingers  90 7.125020027 -90
lthumb  91.62910026 3.057763061 61.93471673
rclavicle  0 5.864150125e-015 -2.067359921e-014
rhumerus  -44.02970123 -10.81480026 -72.93309784
rradius  3.119232299e-031 1.655063111e-031 27.9503994
rwrist  7.062250077e-031 -0 -10.03800011
rhand  -3.556761347e-031 -6.883339882 11.51869965
rfingers  -90 -7.125020027 -90
rthumb  -80.41917163 -25.81954169 -68.81611726
rfemur  -40.29249954 22.80470085 6.14771986
rtibia  -0 0 19.33979988
rfoot  -0 -24.06229973 -30.83180046
rtoes  -0.1177100976 19.99966779 -89.65583687
lfemur  5.160870075 -9.516889572 -27.38089943
ltibia  -0 0 6.970600128
lfoot  -0 -20.45859909 21.80430031
ltoes  -1.785399003 -19.92340044 -95.22655822
100
root  1.89845562 37.12511138 -23.67088889 10.30029964 0.5876970291 1.712170005
lowerback  -2.639980078 0.4237529933 -3.049580097
upperback  -2.292299986 0.6214039922 0.4147720039
thorax  -0.9098899961 0.3541310132 2.145960093
lowerneck  -15.57069969 -0.7756609917 -2.107700109
upperneck  39.29719925 0.2117889971 -1.501109958
head  16.87929916 -0.4307790101 -0.2517359853
lclavicle  0 5.864150125e-015 -2.067359921e-014
lhumerus  -33.1609993 17.99230003 64.22399902
lradius  -2.377922379e-031 -2.610427014e-031 47.66859818
lwrist  -1.059337512e-030 -3.531125038e-031 -3.968519926
lhand  -7.06797277e-031 2.305789948 20.64170074
lfingers  90 7.125020027 -90
lthumb  91.68336209 3.189427616 62.15613062
rclavicle  0 5.864150125e-015 -2.067359921e-014
rhumerus  -43.69530106 -10.92389965 -72.88800049
rradius  3.129441251e-031 1.635677686e-031 27.59490013
rwrist  1.412450015e-030 -0 -9.654410362
rhand  -3.558153097e-031 -7.066559792 11.46259975
rfingers  -90 -7.125020027 -90
rthumb  -80.53245917 -25.7803025 -69.02187209
rfemur  -40.06990051 22.42160034 6.732520103
rtibia  -0 0 19.34869957
rfoot  -0 -22.43090057 -30.12509918
rtoes  -0.03669436401 19.99996772 -89.8927128
lfemur  5.727270126 -9.335909843 -27.26160049
ltibia  -0 0 7.252089977
lfoot  -0 -20.16200066 21.93630028
ltoes  -1.709065884 -19.92982352 -95.002587
101
root  1.841351179 37.06222294 -23.34555528 10.22739983 0.3726609945 1.871019959
lowerback  -2.743240118 0.5281760097 -3.223040104
upperback  -2.071510077 0.7703419924 0.3609179854
thorax  -0.6360790133 0.4230580032 2.193170071
lowerneck  -15.88539982 -0.8418269753 -2.189409971
upperneck  39.28609848 0.07271400094 -1.314669967
head  16.9531002 -0.4740000069 -0.1805830002
lclavicle  0 5.864150125e-015 -2.067359921e-014
lhumerus  -32.91239929 18.21409988 64.10009766
lradius  -2.386611127e-031 -2.602485613e-031 47.4776001
lwrist  -3.531125038e-031 -0 -4.000730038
lhand  -7.06867696e-031 2.44343996 20.15620041
lfingers  90 7.125020027 -90
lthumb  91.45268168 2.73795008 62.03668212
rclavicle  0 5.864150125e-015 -2.067359921e-014
rhumerus  -43.27550125 -11.12110043 -72.97640228
rradius  3.137060693e-031 1.621016424e-031 27.32679939
rwrist  0 -0 -9.322340012
rhand  -3.554711118e-031 -6.603950024 11.88029957
rfingers  -90 -7.125020027 -90
rthumb  -80.1328045 -26.13568089 -68.45259953
rfemur  -39.98619843 21.9340992 7.063280106
rtibia  -0 0 19.63089943
rfoot  -0 -21.14030075 -29.22820091
rtoes  0.2636580664 19.99833319 -90.77090515
lfemur  6.231579781 -9.099809647 -27.43930054
ltibia  -0 0 7.442920208
lfoot  -0 -19.87129974 21.98670006
ltoes  -1.109482685 -19.97046084 -93.24544286
